<svg width="20" height="20" viewBox="0 0 20 20" fill="none" xmlns="http://www.w3.org/2000/svg">
<g clip-path="url(#clip0_363_159)">
<path fill-rule="evenodd" clip-rule="evenodd" d="M0.833496 9.99998C0.833496 4.93737 4.93755 0.833313 10.0002 0.833313C15.0628 0.833313 19.1668 4.93737 19.1668 9.99998C19.1668 15.0626 15.0628 19.1666 10.0002 19.1666C4.93755 19.1666 0.833496 15.0626 0.833496 9.99998ZM8.38236 5.0462C8.35582 4.56854 8.73601 4.16665 9.21441 4.16665H10.7859C11.2643 4.16665 11.6445 4.56854 11.618 5.0462L11.2939 10.8795C11.2694 11.3211 10.9041 11.6666 10.4618 11.6666H9.53848C9.09621 11.6666 8.73097 11.3211 8.70643 10.8795L8.38236 5.0462ZM11.6668 14.1666C11.6668 15.0871 10.9206 15.8333 10.0002 15.8333C9.07969 15.8333 8.3335 15.0871 8.3335 14.1666C8.3335 13.2462 9.07969 12.5 10.0002 12.5C10.9206 12.5 11.6668 13.2462 11.6668 14.1666Z" fill="#FF3C3C"/>
</g>
<defs>
<clipPath id="clip0_363_159">
<rect width="20" height="20" fill="white"/>
</clipPath>
</defs>
</svg>
