<svg width="30" height="30" viewBox="0 0 30 30" fill="none" xmlns="http://www.w3.org/2000/svg">
<path d="M15 27.5C20.1467 27.5 24.3749 23.4214 24.3749 18.1863C24.3749 16.9011 24.3096 15.5234 23.5972 13.3823C22.8848 11.2411 22.7413 10.9648 21.9881 9.64244C21.6663 12.3409 19.9444 13.4655 19.5069 13.8016C19.5069 13.4519 18.4653 9.58494 16.886 7.27119C15.3356 5 13.2271 3.50995 11.9908 2.5C11.9908 4.41861 11.4512 7.27119 10.6784 8.72463C9.90556 10.1781 9.76044 10.231 8.79512 11.3126C7.82987 12.3943 7.38681 12.7283 6.57963 14.0407C5.77248 15.3531 5.625 17.1011 5.625 18.3863C5.625 23.6214 9.85331 27.5 15 27.5Z" stroke="#0194C9" stroke-width="2" stroke-linejoin="round"/>
</svg>
