<svg width="30" height="30" viewBox="0 0 30 30" fill="none" xmlns="http://www.w3.org/2000/svg">
<path fill-rule="evenodd" clip-rule="evenodd" d="M16 0.249493C15.3496 0.0413482 14.6504 0.0413471 13.9999 0.249491L4.1562 3.39949C2.79718 3.83438 1.875 5.09771 1.875 6.52462V13.1247C1.875 16.0611 2.47356 19.0918 4.3185 21.9038C6.16183 24.7134 9.16568 27.1774 13.7533 29.1313C14.5483 29.4699 15.4517 29.4699 16.2467 29.1313C20.8343 27.1774 23.8382 24.7134 25.6815 21.9038C27.5265 19.0918 28.125 16.0611 28.125 13.1247V6.52462C28.125 5.09771 27.2029 3.83438 25.8439 3.39949L16 0.249493ZM14.8571 2.92819C14.9501 2.89845 15.0499 2.89845 15.1429 2.92819L24.9866 6.07819C25.1807 6.14031 25.3125 6.32079 25.3125 6.52462V13.1247C25.3125 15.6716 24.7974 18.1241 23.3299 20.361C21.8608 22.6003 19.353 24.7513 15.1446 26.5438C15.0537 26.5824 14.9463 26.5824 14.8554 26.5438C10.647 24.7513 8.13926 22.6003 6.67007 20.361C5.20247 18.1241 4.6875 15.6716 4.6875 13.1247V6.52462C4.6875 6.32079 4.81924 6.14031 5.01339 6.07819L14.8571 2.92819ZM17.8125 12.1873C17.8125 13.2283 17.2469 14.1372 16.4062 14.6235V19.2186C16.4062 19.9952 15.7766 20.6248 15 20.6248C14.2234 20.6248 13.5938 19.9952 13.5938 19.2186V14.6235C12.7531 14.1372 12.1875 13.2283 12.1875 12.1873C12.1875 10.634 13.4467 9.37477 15 9.37477C16.5533 9.37477 17.8125 10.634 17.8125 12.1873Z" fill="#0194C9"/>
</svg>
