<svg width="20" height="20" viewBox="0 0 20 20" fill="none" xmlns="http://www.w3.org/2000/svg">
<g clip-path="url(#clip0_363_161)">
<path fill-rule="evenodd" clip-rule="evenodd" d="M8.18887 1.8575C8.99482 0.491918 11.0053 0.491918 11.8112 1.8575L19.7166 15.252C20.5482 16.661 19.4698 18.3333 17.9054 18.3333H2.09469C0.530283 18.3333 -0.54808 16.661 0.283513 15.252L8.18887 1.8575ZM8.3822 5.87954C8.35566 5.40187 8.73584 4.99998 9.21425 4.99998H10.7858C11.2642 4.99998 11.6443 5.40187 11.6178 5.87954L11.2937 11.7129C11.2692 12.1545 10.904 12.5 10.4617 12.5H9.53832C9.09604 12.5 8.7308 12.1545 8.70627 11.7129L8.3822 5.87954ZM11.6667 15C11.6667 15.9205 10.9205 16.6666 10 16.6666C9.07953 16.6666 8.33333 15.9205 8.33333 15C8.33333 14.0795 9.07953 13.3333 10 13.3333C10.9205 13.3333 11.6667 14.0795 11.6667 15Z" fill="#FABF35"/>
</g>
<defs>
<clipPath id="clip0_363_161">
<rect width="20" height="20" fill="white"/>
</clipPath>
</defs>
</svg>
