<svg width="20" height="20" viewBox="0 0 20 20" fill="none" xmlns="http://www.w3.org/2000/svg">
<g clip-path="url(#clip0_363_163)">
<path fill-rule="evenodd" clip-rule="evenodd" d="M0.833496 9.99998C0.833496 4.93737 4.93755 0.833313 10.0002 0.833313C15.0628 0.833313 19.1668 4.93737 19.1668 9.99998C19.1668 15.0626 15.0628 19.1666 10.0002 19.1666C4.93755 19.1666 0.833496 15.0626 0.833496 9.99998ZM15.3467 8.08669C15.6714 7.76055 15.6702 7.23291 15.3441 6.90818L14.7536 6.32019C14.4274 5.99546 13.8998 5.9966 13.5751 6.32274L8.76544 11.1532L5.99786 8.4241C5.67015 8.10095 5.14252 8.10465 4.81937 8.43236L4.23426 9.02573C3.91111 9.35344 3.91481 9.88106 4.24252 10.2042L8.1911 14.0978C8.51768 14.4199 9.04311 14.4175 9.36673 14.0924L15.3467 8.08669Z" fill="#357BFA"/>
</g>
<defs>
<clipPath id="clip0_363_163">
<rect width="20" height="20" fill="white"/>
</clipPath>
</defs>
</svg>
